<?xml version="1.0" encoding="utf-8"?>
<!-- Generator: Adobe Illustrator 26.0.1, SVG Export Plug-In . SVG Version: 6.00 Build 0)  -->
<svg version="1.1"
	 id="svg17" inkscape:export-xdpi="561.73712" xmlns:cc="http://creativecommons.org/ns#" xmlns:dc="http://purl.org/dc/elements/1.1/" xmlns:inkscape="http://www.inkscape.org/namespaces/inkscape" xmlns:rdf="http://www.w3.org/1999/02/22-rdf-syntax-ns#" xmlns:sodipodi="http://sodipodi.sourceforge.net/DTD/sodipodi-0.dtd" xmlns:svg="http://www.w3.org/2000/svg"
	 xmlns="http://www.w3.org/2000/svg" xmlns:xlink="http://www.w3.org/1999/xlink" x="0px" y="0px" viewBox="0 0 122 122"
	 style="enable-background:new 0 0 122 122;" xml:space="preserve">
<style type="text/css">
	.st0{fill-rule:evenodd;clip-rule:evenodd;}
</style>
<sodipodi:namedview  bordercolor="#666666" borderopacity="1" gridtolerance="10" guidetolerance="10" id="namedview19" inkscape:current-layer="svg17" inkscape:cx="346.98075" inkscape:cy="350.6691" inkscape:pageopacity="0" inkscape:pageshadow="2" inkscape:window-height="837" inkscape:window-maximized="1" inkscape:window-width="1600" inkscape:window-x="-8" inkscape:window-y="-8" inkscape:zoom="0.75909091" objecttolerance="10" pagecolor="#ffffff" showgrid="false">
	</sodipodi:namedview>
<path id="path2" inkscape:connector-curvature="0" inkscape:export-filename="C:\Users\suitedoalex\sites\g1-logo-4.png" inkscape:export-xdpi="95.587173" inkscape:export-ydpi="95.587173" class="st0" d="
	M103.4,6L83.7,17.6c-0.5,0.3-1,0.7-1.3,1.2s-0.5,1.1-0.5,1.7v8.7c0,0.5,0.1,1.1,0.4,1.6s0.6,0.9,1.1,1.2c0.5,0.3,1,0.5,1.5,0.5
	s1.1-0.1,1.6-0.3l6-3.6v58.6c0,0.4,0.1,0.8,0.3,1.2s0.4,0.7,0.7,1.1c0.3,0.3,0.7,0.5,1.1,0.7s0.8,0.3,1.2,0.3h9
	c1.8,0,3.2-1.5,3.2-2.8V9.4C108,6.5,105.5,4.9,103.4,6z M29.1,60.9c0,9.3,6.8,15.7,14.8,15.7s14.7-6.4,14.7-15.7
	c0-9.5-6.6-15.7-14.7-15.7S29.1,51.4,29.1,60.9L29.1,60.9z M59.1,34.4c0-1.9,1.1-3.1,3.1-3.1h8.7c1.9,0,3.1,1.1,3.1,3.1v44.3
	c0,26.2-11.6,37.6-32.6,37.6c-8,0-17.3-2.6-25.2-7.7c-1.8-1.1-2-2.8-1.1-4.6l3.8-7.5c0.9-1.8,2.8-2.2,4.5-1
	c6.4,4.1,11.9,5.9,17.7,5.9c11,0,17.3-5.5,17.5-17.7c-2,2.2-4.5,3.9-7.2,5s-5.6,1.8-8.6,1.8c-15.9,0-28.6-12-28.6-29.4
	s13.4-30.7,28.9-30.7c6.4,0,12.8,3.2,16.2,7.4L59.1,34.4z"/>
</svg>
